ply
format ascii 1.0
comment Created by Blender 2.79 (sub 0) - www.blender.org, source file: 'fence.blend'
element vertex 116
property float x
property float y
property float z
property float nx
property float ny
property float nz
property uchar red
property uchar green
property uchar blue
element face 48
property list uchar uint vertex_indices
end_header
7.932466 12.141246 -0.107062 0.000000 -0.000000 -1.000000 105 90 23
6.718341 -12.141245 -0.107062 0.000000 -0.000000 -1.000000 103 88 20
6.718342 12.141252 -0.107062 0.000000 -0.000000 -1.000000 105 90 23
6.718341 12.141247 1.107062 0.000000 0.000000 1.000000 102 87 19
7.932466 -12.141254 1.107062 0.000000 0.000000 1.000000 102 87 19
7.932467 12.141240 1.107062 0.000000 0.000000 1.000000 102 87 19
7.932467 12.141240 1.107062 1.000000 0.000000 -0.000000 104 89 22
7.932466 -12.141247 -0.107062 1.000000 0.000000 -0.000000 111 97 33
7.932466 12.141246 -0.107062 1.000000 0.000000 -0.000000 105 90 23
7.932466 -12.141254 1.107062 -0.000002 -1.000000 -0.000006 106 91 24
6.718341 -12.141245 -0.107062 -0.000002 -1.000000 -0.000006 105 90 23
7.932466 -12.141247 -0.107062 -0.000002 -1.000000 -0.000006 105 90 23
6.718341 -12.141245 -0.107062 -1.000000 0.000000 -0.000000 103 88 20
6.718341 12.141247 1.107062 -1.000000 0.000000 -0.000000 109 95 29
6.718342 12.141252 -0.107062 -1.000000 0.000000 -0.000000 113 99 36
7.932466 12.141246 -0.107062 0.000005 1.000000 0.000005 102 87 19
6.718341 12.141247 1.107062 0.000005 1.000000 0.000005 137 126 74
7.932467 12.141240 1.107062 0.000005 1.000000 0.000005 103 88 20
-7.189148 -10.889461 -0.107062 0.000000 0.000000 -1.000000 105 90 23
7.380346 -12.103584 -0.107062 0.000000 0.000000 -1.000000 103 88 20
-7.189151 -12.103584 -0.107062 0.000000 0.000000 -1.000000 105 90 23
-7.189144 -10.889460 1.107062 0.000000 0.000000 1.000000 102 87 19
7.380345 -12.103584 1.107062 0.000000 0.000000 1.000000 102 87 19
7.380352 -10.889460 1.107062 0.000000 0.000000 1.000000 102 87 19
-7.189144 -10.889460 1.107062 -0.000000 1.000000 -0.000001 104 89 22
7.380347 -10.889460 -0.107062 -0.000000 1.000000 -0.000001 111 97 33
-7.189148 -10.889461 -0.107062 -0.000000 1.000000 -0.000001 105 90 23
7.380352 -10.889460 1.107062 1.000000 -0.000001 -0.000004 106 91 24
7.380346 -12.103584 -0.107062 1.000000 -0.000001 -0.000004 105 90 23
7.380347 -10.889460 -0.107062 1.000000 -0.000001 -0.000004 105 90 23
7.380346 -12.103584 -0.107062 0.000000 -1.000000 0.000000 103 88 20
-7.189148 -12.103584 1.107062 0.000000 -1.000000 0.000000 109 95 29
-7.189151 -12.103584 -0.107062 0.000000 -1.000000 0.000000 113 99 36
-7.189148 -10.889461 -0.107062 -1.000000 0.000004 0.000004 102 87 19
-7.189148 -12.103584 1.107062 -1.000000 0.000004 0.000004 113 100 37
-7.189144 -10.889460 1.107062 -1.000000 0.000004 0.000004 103 88 20
-7.189148 12.097491 -0.107062 0.000000 0.000000 -1.000000 105 90 23
7.380346 10.883367 -0.107062 0.000000 0.000000 -1.000000 103 88 20
-7.189151 10.883367 -0.107062 0.000000 0.000000 -1.000000 105 90 23
-7.189144 12.097492 1.107062 0.000000 0.000000 1.000000 102 87 19
7.380345 10.883367 1.107062 0.000000 0.000000 1.000000 102 87 19
7.380352 12.097492 1.107062 0.000000 0.000000 1.000000 102 87 19
-7.189144 12.097492 1.107062 -0.000000 1.000000 -0.000001 104 89 22
7.380347 12.097492 -0.107062 -0.000000 1.000000 -0.000001 111 97 33
-7.189148 12.097491 -0.107062 -0.000000 1.000000 -0.000001 105 90 23
7.380352 12.097492 1.107062 1.000000 -0.000001 -0.000004 106 91 24
7.380346 10.883367 -0.107062 1.000000 -0.000001 -0.000004 105 90 23
7.380347 12.097492 -0.107062 1.000000 -0.000001 -0.000004 105 90 23
7.380346 10.883367 -0.107062 0.000000 -1.000000 0.000000 103 88 20
-7.189148 10.883367 1.107062 0.000000 -1.000000 0.000000 109 95 29
-7.189151 10.883367 -0.107062 0.000000 -1.000000 0.000000 113 99 36
-7.189148 12.097491 -0.107062 -1.000000 0.000004 0.000004 102 87 19
-7.189148 10.883367 1.107062 -1.000000 0.000004 0.000004 137 126 74
-7.189144 12.097492 1.107062 -1.000000 0.000004 0.000004 103 88 20
-6.587275 12.141246 -0.105153 0.000000 0.000000 -1.000000 105 90 23
-7.797581 -12.141245 -0.105153 0.000000 0.000000 -1.000000 103 88 20
-7.797581 12.141252 -0.105153 0.000000 0.000000 -1.000000 105 90 23
-6.587275 12.141240 1.105153 0.000000 -0.000000 1.000000 102 87 19
-7.797581 -12.141242 1.105153 0.000000 -0.000000 1.000000 102 87 19
-6.587275 -12.141254 1.105153 0.000000 -0.000000 1.000000 102 87 19
-6.587275 12.141240 1.105153 1.000000 0.000000 -0.000000 104 89 22
-6.587275 -12.141247 -0.105153 1.000000 0.000000 -0.000000 111 97 33
-6.587275 12.141246 -0.105153 1.000000 0.000000 -0.000000 105 90 23
-6.587275 -12.141254 1.105153 -0.000002 -1.000000 -0.000006 106 91 24
-7.797581 -12.141245 -0.105153 -0.000002 -1.000000 -0.000006 105 90 23
-6.587275 -12.141247 -0.105153 -0.000002 -1.000000 -0.000006 105 90 23
-7.797581 -12.141245 -0.105153 -1.000000 -0.000000 0.000000 103 88 20
-7.797581 12.141247 1.105153 -1.000000 -0.000000 0.000000 109 95 29
-7.797581 12.141252 -0.105153 -1.000000 -0.000000 0.000000 113 99 36
-6.587275 12.141246 -0.105153 0.000006 1.000000 0.000005 102 87 19
-7.797581 12.141247 1.105153 0.000006 1.000000 0.000005 137 126 74
-6.587275 12.141240 1.105153 0.000006 1.000000 0.000005 103 88 20
7.932466 -12.141247 -0.107062 0.000000 0.000000 -1.000000 103 88 21
6.718341 -12.141242 1.107062 0.000000 -0.000000 1.000000 102 87 19
7.932466 -12.141254 1.107062 1.000000 -0.000000 0.000000 102 87 19
7.932466 -12.141254 1.107062 -0.000010 -1.000000 0.000002 106 91 24
6.718341 -12.141242 1.107062 -0.000010 -1.000000 0.000002 110 96 31
6.718341 -12.141245 -0.107062 -0.000010 -1.000000 0.000002 105 90 23
6.718341 -12.141242 1.107062 -1.000000 0.000000 -0.000000 102 87 19
7.932466 12.141246 -0.107062 0.000005 1.000000 0.000004 102 87 19
6.718342 12.141252 -0.107062 0.000005 1.000000 0.000004 102 87 19
6.718341 12.141247 1.107062 0.000005 1.000000 0.000004 137 126 74
7.380347 -10.889460 -0.107062 -0.000000 0.000000 -1.000000 103 88 21
-7.189148 -12.103584 1.107062 0.000000 -0.000000 1.000000 102 87 19
-7.189144 -10.889460 1.107062 0.000000 1.000000 -0.000000 104 89 22
7.380352 -10.889460 1.107062 0.000000 1.000000 -0.000000 102 87 19
7.380347 -10.889460 -0.107062 0.000000 1.000000 -0.000000 111 97 33
7.380352 -10.889460 1.107062 1.000000 -0.000006 0.000001 106 91 24
7.380345 -12.103584 1.107062 1.000000 -0.000006 0.000001 110 96 31
7.380346 -12.103584 -0.107062 1.000000 -0.000006 0.000001 105 90 23
7.380345 -12.103584 1.107062 0.000000 -1.000000 0.000000 102 87 19
-7.189148 -10.889461 -0.107062 -1.000000 0.000002 0.000002 102 87 19
-7.189151 -12.103584 -0.107062 -1.000000 0.000002 0.000002 102 87 19
-7.189148 -12.103584 1.107062 -1.000000 0.000002 0.000002 113 100 37
7.380347 12.097492 -0.107062 -0.000000 0.000000 -1.000000 103 88 21
-7.189148 10.883367 1.107062 0.000000 -0.000000 1.000000 102 87 19
-7.189144 12.097492 1.107062 0.000000 1.000000 -0.000000 104 89 22
7.380352 12.097492 1.107062 0.000000 1.000000 -0.000000 102 87 19
7.380347 12.097492 -0.107062 0.000000 1.000000 -0.000000 111 97 33
7.380352 12.097492 1.107062 1.000000 -0.000006 0.000001 106 91 24
7.380345 10.883367 1.107062 1.000000 -0.000006 0.000001 110 96 31
7.380346 10.883367 -0.107062 1.000000 -0.000006 0.000001 105 90 23
7.380345 10.883367 1.107062 0.000000 -1.000000 0.000000 102 87 19
-7.189148 12.097491 -0.107062 -1.000000 0.000002 0.000002 102 87 19
-7.189151 10.883367 -0.107062 -1.000000 0.000002 0.000002 102 87 19
-7.189148 10.883367 1.107062 -1.000000 0.000002 0.000002 137 126 74
-6.587275 -12.141247 -0.105153 0.000000 0.000000 -1.000000 103 88 21
-7.797581 12.141247 1.105153 -0.000000 0.000000 1.000000 102 87 19
-6.587275 -12.141254 1.105153 1.000000 0.000000 -0.000000 102 87 19
-6.587275 -12.141254 1.105153 -0.000010 -1.000000 0.000002 106 91 24
-7.797581 -12.141242 1.105153 -0.000010 -1.000000 0.000002 110 96 31
-7.797581 -12.141245 -0.105153 -0.000010 -1.000000 0.000002 105 90 23
-7.797581 -12.141242 1.105153 -1.000000 -0.000000 0.000000 102 87 19
-6.587275 12.141246 -0.105153 0.000005 1.000000 0.000004 102 87 19
-7.797581 12.141252 -0.105153 0.000005 1.000000 0.000004 102 87 19
-7.797581 12.141247 1.105153 0.000005 1.000000 0.000004 137 126 74
3 0 1 2
3 3 4 5
3 6 7 8
3 9 10 11
3 12 13 14
3 15 16 17
3 18 19 20
3 21 22 23
3 24 25 26
3 27 28 29
3 30 31 32
3 33 34 35
3 36 37 38
3 39 40 41
3 42 43 44
3 45 46 47
3 48 49 50
3 51 52 53
3 54 55 56
3 57 58 59
3 60 61 62
3 63 64 65
3 66 67 68
3 69 70 71
3 0 72 1
3 3 73 4
3 6 74 7
3 75 76 77
3 12 78 13
3 79 80 81
3 18 82 19
3 21 83 22
3 84 85 86
3 87 88 89
3 30 90 31
3 91 92 93
3 36 94 37
3 39 95 40
3 96 97 98
3 99 100 101
3 48 102 49
3 103 104 105
3 54 106 55
3 57 107 58
3 60 108 61
3 109 110 111
3 66 112 67
3 113 114 115
